<?xml version="1.0" encoding="utf-8"?>
<!DOCTYPE svg PUBLIC "-//W3C//DTD SVG 20010904//EN" "http://www.w3.org/TR/2001/REC-SVG-20010904/DTD/svg10.dtd">
<svg version="1.0" xmlns="http://www.w3.org/2000/svg" width="752pt" height="666pt" viewBox="0 0 752 666" style="" preserveAspectRatio="xMidYMid meet">
<g fill="#994344FF">
<path d="M 507.500 244.815 C 504.680 245.402 504.033 246.807 504.015 252.384 C 504.007 255.070 503.580 258.895 503.067 260.884 C 502.555 262.873 501.152 268.775 499.950 274.000 C 498.749 279.225 497.160 284.143 496.419 284.928 C 495.277 286.139 493.842 286.169 487.002 285.122 C 482.564 284.442 478.071 284.160 477.018 284.494 C 474.804 285.197 473.603 288.174 474.453 290.852 C 475.175 293.126 484.230 298.185 488.999 298.978 C 493.239 299.684 493.348 300.977 490.092 312.000 C 488.874 316.125 487.498 321.075 487.036 323.000 C 485.937 327.581 484.040 332.953 477.854 349.000 C 469.575 370.478 457.214 389.104 452.978 386.486 C 450.937 385.225 452.879 375.213 462.581 337.000 C 463.907 331.775 465.275 325.193 465.619 322.373 C 466.226 317.410 466.122 317.122 462.340 313.340 C 457.734 308.734 452.158 305.885 446.501 305.247 C 441.767 304.714 440.461 305.830 439.767 311.000 C 439.065 316.234 431.052 346.976 429.341 351.000 C 424.286 362.887 418.614 374.510 415.433 379.500 C 411.624 385.475 407.097 390.178 405.879 389.425 C 404.786 388.750 404.834 379.025 405.960 373.000 C 407.117 366.811 409.297 357.674 412.998 343.500 C 414.721 336.900 416.753 329.025 417.513 326.000 C 418.274 322.975 419.633 317.800 420.535 314.500 C 425.266 297.179 428.594 276.982 427.595 271.656 C 427.224 269.677 425.786 266.710 424.398 265.062 C 421.486 261.600 411.161 256.225 405.734 255.344 C 400.283 254.460 399.000 256.006 399.000 263.463 C 399.000 269.141 397.595 277.276 393.553 295.000 C 392.737 298.575 391.401 304.425 390.582 308.000 C 386.354 326.468 379.722 349.569 376.945 355.500 C 376.430 356.600 375.154 360.200 374.110 363.500 C 370.227 375.773 360.646 394.000 358.078 394.000 C 357.112 394.000 358.411 386.391 360.468 380.000 C 363.202 371.507 371.819 338.437 373.106 331.500 C 373.617 328.750 374.518 324.646 375.110 322.381 C 375.978 319.059 375.887 317.683 374.639 315.270 C 371.995 310.156 357.066 304.575 351.099 306.469 C 349.449 306.992 349.000 307.953 349.000 310.957 C 349.000 319.070 339.958 355.987 335.359 366.651 C 334.612 368.384 334.000 370.672 334.000 371.734 C 334.000 372.797 333.679 373.987 333.287 374.379 C 332.895 374.771 331.847 376.984 330.957 379.296 C 328.814 384.861 320.529 397.516 317.756 399.458 C 310.772 404.350 307.418 396.862 309.039 380.000 C 310.717 362.553 318.219 343.386 327.104 333.846 C 328.422 332.431 331.975 329.786 335.000 327.969 C 343.218 323.034 344.000 322.156 344.000 317.871 C 344.000 314.653 343.535 313.811 341.050 312.526 C 333.597 308.672 318.089 312.216 307.500 320.194 C 295.346 329.351 285.295 345.174 280.453 362.772 C 275.820 379.613 258.695 409.028 255.426 405.760 C 254.718 405.051 256.534 390.576 257.968 385.500 C 258.434 383.850 259.537 380.025 260.420 377.000 C 270.252 343.281 270.933 339.728 268.486 334.919 C 265.377 328.808 254.708 321.000 249.469 321.000 C 247.053 321.000 240.329 328.143 235.024 336.347 C 232.658 340.006 230.387 343.000 229.977 343.000 C 229.568 343.000 228.861 344.013 228.406 345.250 C 226.536 350.339 227.828 341.391 229.959 334.500 C 231.150 330.650 232.525 325.925 233.016 324.000 C 237.348 307.005 238.961 298.516 238.979 292.618 C 238.999 286.064 238.837 285.582 235.572 282.503 C 231.784 278.931 220.545 274.000 216.189 274.000 C 212.378 274.000 211.000 275.686 211.000 280.350 C 211.000 287.568 205.497 312.742 199.820 331.500 C 188.772 367.999 185.281 376.950 173.871 398.033 C 169.323 406.435 161.303 414.826 156.311 416.404 C 153.298 417.357 151.995 414.599 152.018 407.316 C 152.040 400.308 154.480 382.497 155.947 378.641 C 156.526 377.117 157.000 374.694 157.000 373.256 C 157.000 371.818 157.447 369.260 157.993 367.571 C 159.600 362.600 165.000 339.598 165.000 337.722 C 165.000 334.805 168.502 332.301 173.616 331.559 C 176.302 331.170 180.703 330.097 183.394 329.176 C 189.026 327.248 197.726 319.940 198.617 316.389 C 199.751 311.873 195.508 309.701 189.797 311.874 C 184.949 313.719 177.394 315.912 175.000 316.169 C 170.533 316.650 170.218 315.759 171.695 306.793 C 174.130 292.002 172.225 287.341 161.749 282.463 C 156.036 279.804 147.903 279.167 146.258 281.250 C 145.715 281.938 144.978 286.775 144.621 292.000 C 143.824 303.653 140.549 320.035 138.795 321.148 C 138.083 321.600 130.063 321.976 120.973 321.985 C 102.909 322.001 100.000 322.771 100.000 327.534 C 100.000 332.285 108.878 335.418 125.784 336.633 C 130.890 337.000 135.264 337.617 135.503 338.005 C 135.907 338.659 135.406 341.095 131.497 357.500 C 125.652 382.022 123.778 393.090 123.630 403.956 C 123.520 412.053 123.836 414.128 125.716 417.643 C 130.286 426.189 141.470 433.269 150.500 433.333 C 159.446 433.396 170.752 426.091 179.301 414.724 C 182.371 410.642 185.000 409.857 185.000 413.022 C 185.000 415.917 192.607 423.771 197.625 426.057 C 205.020 429.426 212.995 428.211 213.005 423.715 C 213.008 422.497 212.244 419.363 211.307 416.750 C 209.696 412.255 209.700 411.736 211.370 407.091 C 213.487 401.203 221.596 385.073 226.481 377.032 C 228.416 373.845 230.000 370.735 230.000 370.119 C 230.000 369.504 230.465 369.000 231.032 369.000 C 231.600 369.000 232.471 367.988 232.969 366.750 C 234.595 362.704 234.058 367.243 231.400 380.011 C 228.701 392.975 228.471 404.871 230.872 407.272 C 231.492 407.892 232.000 409.180 232.000 410.133 C 232.000 411.087 234.138 414.048 236.750 416.715 C 245.409 425.554 254.978 425.937 264.087 417.809 C 267.865 414.438 277.452 401.736 278.952 398.116 C 280.702 393.891 282.339 394.197 285.334 399.308 C 288.210 404.214 295.257 411.047 299.939 413.469 C 304.974 416.072 312.298 416.540 317.416 414.585 C 321.486 413.031 333.000 402.864 333.000 400.825 C 333.000 399.226 334.678 400.037 338.568 403.518 C 350.863 414.519 361.201 413.679 370.000 400.963 C 371.925 398.181 374.456 394.709 375.625 393.247 L 377.751 390.588 378.495 393.975 C 378.962 396.103 381.063 399.139 384.145 402.141 C 391.282 409.093 398.839 410.729 407.167 407.125 C 412.068 405.003 414.251 403.086 421.864 394.216 L 427.227 387.966 430.238 392.714 C 433.725 398.213 435.042 399.409 440.500 402.033 C 445.540 404.456 452.329 404.492 457.500 402.124 C 462.104 400.016 471.343 391.030 475.001 385.104 C 476.375 382.876 478.175 381.066 479.000 381.081 C 479.825 381.097 481.885 383.222 483.577 385.804 C 487.909 392.415 497.548 398.000 504.623 398.000 C 510.035 398.000 515.789 396.068 519.983 392.843 C 524.746 389.181 533.964 379.690 534.549 377.846 C 535.579 374.601 538.405 375.946 541.804 381.298 C 547.388 390.089 555.843 395.089 565.201 395.134 C 570.133 395.158 571.673 394.660 576.415 391.512 C 579.439 389.506 583.269 386.319 584.926 384.432 C 586.583 382.544 588.349 381.000 588.851 381.000 C 589.352 381.000 590.923 382.522 592.342 384.382 C 596.448 389.765 603.532 393.419 609.714 393.342 C 612.784 393.304 615.967 392.597 617.456 391.621 C 620.915 389.354 630.538 379.138 634.711 373.301 C 643.413 361.130 660.472 328.595 661.166 322.848 C 661.635 318.968 658.520 316.000 653.981 316.000 L 650.273 316.000 641.478 333.750 C 636.640 343.513 632.124 352.175 631.441 353.000 C 630.758 353.825 628.985 356.690 627.502 359.367 C 624.617 364.573 616.578 375.525 614.863 376.585 C 612.209 378.225 612.092 374.940 614.538 367.428 C 615.957 363.068 617.527 358.600 618.025 357.500 C 618.523 356.400 620.554 350.550 622.537 344.500 C 624.520 338.450 626.518 332.600 626.977 331.500 C 627.436 330.400 628.792 326.125 629.991 322.000 C 631.190 317.875 632.564 313.506 633.045 312.290 C 635.012 307.325 635.304 300.113 633.642 297.576 C 631.060 293.636 619.935 288.830 614.243 289.196 L 609.500 289.500 607.923 298.500 C 607.056 303.450 605.750 309.300 605.020 311.500 C 604.291 313.700 603.114 317.300 602.406 319.500 C 600.284 326.089 594.929 341.356 593.987 343.500 C 593.504 344.600 592.157 347.750 590.994 350.500 C 582.114 371.489 572.117 383.274 565.978 379.988 C 561.965 377.840 562.243 365.133 566.645 349.500 C 570.352 336.334 575.760 325.585 582.578 317.834 C 585.788 314.185 594.603 308.000 596.595 308.000 C 599.164 308.000 604.000 302.870 603.985 300.161 C 603.928 290.389 588.113 288.999 571.000 297.262 C 554.662 305.152 539.506 326.554 534.836 348.331 C 533.666 353.786 533.284 354.532 526.085 365.456 C 520.397 374.086 515.519 379.137 511.116 380.956 C 508.035 382.229 507.610 382.187 506.366 380.486 C 504.343 377.719 504.737 369.921 507.552 357.000 C 508.930 350.675 510.485 343.475 511.007 341.000 C 511.530 338.525 512.887 333.350 514.023 329.500 C 515.160 325.650 516.699 320.250 517.444 317.500 C 520.853 304.918 522.075 300.688 522.497 300.005 C 522.747 299.601 524.650 299.013 526.726 298.700 C 540.489 296.622 551.539 292.862 559.413 287.575 C 565.986 283.161 568.317 279.292 566.050 276.560 C 564.614 274.829 557.018 274.387 555.450 275.943 C 554.928 276.461 552.700 277.323 550.500 277.858 C 548.300 278.392 543.243 279.768 539.263 280.915 C 535.282 282.062 530.842 283.000 529.396 283.000 C 527.137 283.000 526.861 282.683 527.440 280.750 C 529.257 274.674 530.557 260.276 529.518 257.735 C 526.571 250.527 514.392 243.380 507.500 244.815 "/></g>
<g fill="#F8ACB0FF">
<path d="M 506.690 246.750 C 506.455 247.163 505.964 250.425 505.600 254.000 C 504.929 260.573 503.041 269.540 500.020 280.500 L 498.366 286.500 487.433 286.500 C 477.019 286.500 476.485 286.602 476.195 288.642 C 475.806 291.368 479.495 294.026 487.500 296.788 L 493.500 298.859 493.415 302.915 C 493.368 305.146 492.824 308.666 492.207 310.736 C 491.590 312.806 490.134 317.875 488.972 322.000 C 487.810 326.125 486.488 330.400 486.035 331.500 C 485.582 332.600 484.435 335.750 483.485 338.500 C 480.292 347.748 471.951 367.118 469.465 371.056 C 468.109 373.203 467.000 375.191 467.000 375.473 C 467.000 376.188 463.189 380.756 458.787 385.315 C 452.965 391.346 451.476 390.279 451.608 380.169 C 451.667 375.618 452.494 369.106 453.446 365.697 C 455.012 360.091 456.291 355.338 459.019 345.000 C 465.181 321.639 465.375 318.159 460.750 313.880 C 454.967 308.529 445.863 305.501 442.365 307.765 C 441.741 308.169 441.037 310.525 440.801 313.000 C 440.312 318.132 432.726 347.251 430.585 352.212 C 429.805 354.021 428.398 357.300 427.458 359.500 C 421.808 372.723 413.535 386.549 409.029 390.297 C 407.731 391.375 406.096 391.848 404.934 391.479 C 403.317 390.966 403.003 389.932 403.020 385.183 C 403.040 379.308 404.822 367.855 406.938 360.000 C 408.265 355.076 409.498 350.363 414.000 333.000 C 418.987 313.770 420.089 309.633 421.122 306.272 C 422.078 303.161 422.715 299.927 425.105 286.066 C 425.715 282.527 426.025 277.017 425.793 273.822 C 425.426 268.745 424.949 267.633 422.011 265.010 C 416.337 259.944 407.067 256.209 403.208 257.434 C 401.600 257.944 401.155 259.359 400.582 265.774 C 399.839 274.093 397.859 285.181 395.541 294.000 C 394.745 297.025 392.670 305.800 390.929 313.500 C 383.707 345.435 368.978 385.152 361.277 393.458 C 358.661 396.278 357.903 396.503 356.323 394.923 C 355.592 394.192 355.549 392.663 356.187 390.173 C 356.705 388.153 357.542 384.557 358.047 382.183 C 358.551 379.809 359.247 377.410 359.591 376.852 C 359.936 376.295 360.835 373.398 361.590 370.415 C 362.344 367.432 363.669 362.405 364.535 359.245 C 365.401 356.085 366.499 351.925 366.975 350.000 C 367.452 348.075 369.002 342.001 370.421 336.502 C 373.744 323.620 373.851 316.108 370.750 313.341 C 368.416 311.258 361.909 308.639 356.209 307.488 C 351.462 306.529 350.000 308.194 350.000 314.559 C 350.000 319.509 345.893 339.050 342.447 350.500 C 337.041 368.460 332.269 381.426 329.199 386.500 C 321.351 399.468 318.791 402.000 313.524 402.000 C 307.346 402.000 305.055 392.837 307.448 377.697 C 308.334 372.089 309.542 365.925 310.131 364.000 C 312.923 354.882 317.602 344.235 321.191 338.832 C 325.035 333.044 327.042 331.300 337.500 324.657 C 343.033 321.142 344.274 318.065 341.425 314.918 C 339.128 312.379 327.011 312.231 320.770 314.666 C 302.640 321.738 288.113 340.221 281.994 364.000 C 279.414 374.027 264.568 401.612 259.189 406.371 C 256.879 408.416 254.316 407.988 253.320 405.391 C 252.395 402.982 256.378 384.366 261.534 367.000 C 266.796 349.275 268.590 340.487 267.684 336.877 C 266.383 331.693 255.351 323.000 250.073 323.000 C 248.970 323.000 246.538 324.528 244.671 326.396 C 241.631 329.436 230.000 345.469 230.000 346.620 C 230.000 346.874 229.015 348.413 227.812 350.040 C 223.248 356.214 222.803 352.563 226.597 340.059 C 230.929 325.780 231.720 322.927 234.517 311.500 C 235.998 305.450 237.275 297.414 237.355 293.642 L 237.500 286.785 233.252 283.008 C 229.534 279.703 226.547 278.305 217.355 275.570 C 213.869 274.533 212.000 277.344 212.000 283.624 C 212.000 289.016 210.454 297.679 207.382 309.500 C 202.724 327.428 202.872 326.897 198.042 343.000 C 194.968 353.246 192.805 359.864 189.541 369.000 C 188.657 371.475 184.818 379.800 181.010 387.500 C 173.275 403.140 165.785 413.189 159.111 416.877 L 154.810 419.255 152.655 417.090 C 150.726 415.152 150.512 413.907 150.613 405.213 C 150.684 399.056 151.718 390.558 153.437 382.000 C 156.675 365.880 163.654 336.361 164.933 333.375 C 165.609 331.797 167.086 331.076 170.671 330.572 C 180.878 329.136 189.294 325.521 193.698 320.682 C 198.004 315.950 198.312 313.593 194.679 313.177 C 193.128 312.999 190.428 313.379 188.679 314.020 C 183.636 315.871 174.760 317.926 171.641 317.964 C 168.896 317.999 168.804 317.849 169.360 314.250 C 169.678 312.188 170.238 306.188 170.605 300.917 L 171.272 291.334 168.386 288.576 C 163.564 283.969 153.184 280.172 149.022 281.493 C 147.354 282.022 147.000 282.995 147.000 287.049 C 147.000 292.708 145.452 303.206 143.027 314.000 C 141.678 320.006 140.860 321.746 138.921 322.735 C 137.301 323.562 131.186 323.975 120.441 323.985 C 103.717 324.001 100.209 324.775 101.510 328.165 C 102.787 331.494 116.697 334.935 129.059 334.980 C 138.076 335.013 138.365 335.595 135.514 348.000 C 134.187 353.775 132.569 360.525 131.919 363.000 C 130.641 367.866 130.237 369.835 127.098 386.500 C 124.907 398.136 124.324 412.464 126.000 413.500 C 126.550 413.840 127.000 414.797 127.000 415.626 C 127.000 417.951 131.897 423.833 136.423 426.945 C 138.665 428.486 143.087 430.326 146.248 431.033 C 157.569 433.563 165.190 429.102 180.160 411.184 C 181.623 409.433 183.200 408.000 183.666 408.000 C 184.131 408.000 185.541 410.245 186.800 412.988 C 190.533 421.125 201.813 428.268 208.343 426.629 C 211.610 425.809 212.619 422.593 210.583 419.486 C 207.482 414.754 208.525 408.705 214.614 396.111 C 222.331 380.150 233.443 361.080 235.919 359.550 C 237.263 358.719 238.084 361.869 237.024 363.790 C 234.489 368.386 230.738 391.963 231.308 399.718 C 232.259 412.670 240.833 421.968 251.849 421.994 C 258.273 422.010 268.084 413.014 276.381 399.500 C 278.745 395.650 281.307 392.500 282.076 392.500 C 282.844 392.500 284.103 393.850 284.873 395.500 C 289.072 404.500 298.111 411.866 307.000 413.530 C 315.345 415.092 319.576 413.299 327.404 404.880 C 330.923 401.096 334.326 398.000 334.966 398.000 C 335.606 398.000 337.300 399.392 338.732 401.093 C 343.217 406.424 348.863 409.370 354.725 409.439 C 359.810 409.498 360.093 409.348 365.333 403.809 C 368.293 400.679 371.447 396.579 372.340 394.697 C 373.959 391.285 376.673 388.340 377.467 389.133 C 377.697 389.364 379.165 392.015 380.729 395.026 C 382.736 398.887 385.036 401.486 388.537 403.846 C 393.149 406.955 393.969 407.165 400.134 406.820 C 405.952 406.493 407.342 406.001 411.424 402.821 C 413.984 400.826 418.326 396.226 421.073 392.597 C 423.820 388.969 426.465 386.000 426.952 386.000 C 427.439 386.000 428.844 387.688 430.075 389.750 C 434.032 396.377 438.046 399.872 443.538 401.468 C 451.526 403.790 457.441 401.679 465.379 393.673 C 472.226 386.768 475.000 383.419 475.000 382.060 C 475.000 380.671 477.963 378.000 479.504 378.000 C 480.253 378.000 481.167 378.950 481.535 380.111 C 482.467 383.048 488.793 389.855 492.994 392.442 C 499.328 396.343 504.435 397.482 509.247 396.070 C 517.299 393.706 527.840 385.279 533.444 376.725 C 535.779 373.162 539.541 373.036 540.409 376.492 C 540.753 377.862 543.614 381.612 546.767 384.823 C 552.706 390.872 559.061 394.000 565.414 394.000 C 570.055 394.000 578.588 389.188 583.482 383.810 C 585.889 381.165 588.193 379.000 588.601 379.000 C 589.009 379.000 591.259 381.000 593.600 383.443 C 601.503 391.691 609.915 394.070 616.590 389.945 C 622.077 386.553 632.099 374.869 638.840 364.002 C 648.187 348.935 660.000 325.209 660.000 321.502 C 660.000 320.658 658.435 319.221 656.522 318.309 C 653.238 316.743 652.931 316.752 651.022 318.480 C 649.910 319.487 649.000 320.832 649.000 321.469 C 649.000 323.298 635.980 348.618 630.216 358.000 C 621.613 372.002 616.884 377.500 613.443 377.500 C 610.886 377.500 610.542 377.172 610.817 375.000 C 611.140 372.445 615.427 359.106 617.084 355.500 C 617.589 354.400 618.632 351.475 619.400 349.000 C 620.169 346.525 622.012 341.125 623.496 337.000 C 626.609 328.344 632.741 307.446 633.033 304.500 C 633.638 298.375 630.659 295.311 620.681 291.798 C 612.379 288.874 611.238 289.203 610.433 294.750 C 609.310 302.483 602.962 324.997 600.071 331.500 C 599.582 332.600 597.373 338.225 595.163 344.000 C 589.238 359.483 586.580 364.730 580.729 372.500 C 574.336 380.988 569.215 384.026 565.454 381.562 C 562.968 379.933 560.989 374.518 561.045 369.500 C 561.076 366.701 563.616 354.002 565.748 345.985 C 567.313 340.103 574.591 325.416 578.438 320.378 C 583.072 314.308 586.596 311.418 594.731 307.015 C 602.736 302.683 604.137 300.046 600.415 296.324 C 597.972 293.881 597.441 293.782 588.975 294.187 C 581.118 294.563 579.232 295.050 572.580 298.427 C 564.977 302.286 555.982 309.995 550.326 317.500 C 544.056 325.820 537.000 341.623 537.000 347.344 C 537.000 349.417 531.559 361.712 530.072 363.000 C 529.754 363.275 528.232 365.363 526.688 367.639 C 517.832 380.701 508.173 387.046 504.935 381.930 C 503.812 380.154 503.829 367.052 504.962 361.000 C 507.022 349.999 509.204 341.006 514.424 322.000 C 515.859 316.775 517.775 309.649 518.681 306.165 C 520.638 298.643 521.901 297.646 531.500 296.040 C 544.801 293.814 556.675 288.960 562.386 283.413 C 566.028 279.877 566.262 277.535 563.077 276.524 C 562.121 276.221 558.000 277.045 553.919 278.355 C 526.953 287.011 523.489 286.827 526.439 276.893 C 527.298 274.002 528.000 268.378 528.000 264.395 C 528.000 258.142 527.661 256.750 525.516 254.201 C 521.357 249.259 508.224 244.061 506.690 246.750 "/></g>
<g fill="#994344FF">
<path d="M 507.000 424.088 C 481.975 424.411 452.500 425.208 441.500 425.860 C 403.461 428.115 350.925 432.209 337.000 434.004 C 332.875 434.536 324.325 435.440 318.000 436.013 C 311.675 436.586 305.782 437.276 304.904 437.546 C 304.026 437.816 299.301 438.468 294.404 438.994 C 276.929 440.872 234.549 446.933 225.000 448.919 C 222.525 449.434 216.225 450.585 211.000 451.477 C 200.694 453.237 193.915 454.550 167.000 460.000 C 160.222 461.373 153.196 463.468 152.298 464.385 C 150.833 465.881 175.044 463.903 193.000 461.059 C 196.575 460.493 206.250 459.324 214.500 458.462 C 222.750 457.599 230.850 456.707 232.500 456.479 C 239.321 455.535 284.478 451.197 293.500 450.619 C 296.800 450.408 307.600 449.732 317.500 449.118 C 327.400 448.504 342.025 447.439 350.000 446.751 C 360.499 445.845 394.993 445.499 475.000 445.496 C 579.654 445.493 585.640 445.398 588.150 443.697 C 591.344 441.532 596.000 434.740 596.000 432.244 C 596.000 429.580 593.454 426.425 590.290 425.167 C 586.576 423.691 562.201 423.375 507.000 424.088 M 589.661 426.935 C 593.359 429.190 594.442 431.797 593.060 435.118 C 591.504 438.855 589.730 440.651 585.328 442.946 L 581.241 445.076 531.871 443.907 C 480.278 442.684 388.985 443.237 356.500 444.969 C 303.869 447.774 267.329 450.824 217.500 456.571 C 193.447 459.345 183.841 460.174 183.198 459.531 C 182.025 458.358 185.449 457.031 189.685 457.015 C 191.987 457.007 195.137 456.509 196.685 455.908 C 198.233 455.307 201.975 454.443 205.000 453.986 C 208.025 453.530 217.475 451.999 226.000 450.584 C 252.720 446.148 275.668 442.701 289.500 441.044 C 294.450 440.451 305.475 439.112 314.000 438.067 C 322.525 437.023 335.800 435.643 343.500 435.002 C 351.200 434.360 361.775 433.420 367.000 432.912 C 372.225 432.405 382.800 431.536 390.500 430.982 C 398.200 430.428 409.900 429.538 416.500 429.005 C 423.100 428.472 442.900 427.555 460.500 426.967 C 478.100 426.380 493.175 425.749 494.000 425.565 C 494.825 425.382 515.975 425.181 541.000 425.120 C 584.277 425.013 586.654 425.102 589.661 426.935 M 180.500 461.000 C 180.160 461.550 178.334 462.000 176.441 462.000 C 174.548 462.000 173.000 461.550 173.000 461.000 C 173.000 460.450 174.827 460.000 177.059 460.000 C 179.510 460.000 180.873 460.396 180.500 461.000 "/></g>
<g fill="#F8ACB0FF">
<path d="M 494.000 425.565 C 493.175 425.749 478.100 426.380 460.500 426.967 C 442.900 427.555 423.100 428.472 416.500 429.005 C 409.900 429.538 398.200 430.428 390.500 430.982 C 382.800 431.536 372.225 432.405 367.000 432.912 C 361.775 433.420 351.200 434.360 343.500 435.002 C 335.800 435.643 322.525 437.023 314.000 438.067 C 305.475 439.112 294.450 440.451 289.500 441.044 C 275.668 442.701 252.720 446.148 226.000 450.584 C 217.475 451.999 208.025 453.530 205.000 453.986 C 201.975 454.443 198.233 455.307 196.685 455.908 C 195.137 456.509 191.987 457.007 189.685 457.015 C 185.449 457.031 182.025 458.358 183.198 459.531 C 183.841 460.174 193.447 459.345 217.500 456.571 C 267.329 450.824 303.869 447.774 356.500 444.969 C 388.985 443.237 480.278 442.684 531.871 443.907 L 581.241 445.076 585.328 442.946 C 589.730 440.651 591.504 438.855 593.060 435.118 C 594.442 431.797 593.359 429.190 589.661 426.935 C 586.654 425.102 584.277 425.013 541.000 425.120 C 515.975 425.181 494.825 425.382 494.000 425.565 "/></g>
<g fill="#994344FF">
<path d="M 439.455 267.455 C 434.861 272.048 436.612 286.875 442.436 292.706 C 449.833 300.112 462.914 294.840 469.392 281.841 C 473.027 274.546 472.877 270.504 468.879 268.073 C 465.813 266.208 465.680 266.208 461.296 268.087 C 455.569 270.542 454.829 270.503 450.405 267.500 C 445.757 264.346 442.576 264.333 439.455 267.455 "/></g>
<g fill="#F63E46FF">
<path d="M 439.557 269.223 C 437.332 272.398 437.543 281.183 439.956 285.914 C 443.758 293.366 449.356 296.336 455.324 294.067 C 461.925 291.557 470.120 280.733 470.303 274.282 C 470.477 268.171 466.224 266.897 458.559 270.765 C 455.902 272.106 455.298 272.077 452.309 270.467 C 450.489 269.487 449.000 268.306 449.000 267.843 C 449.000 267.379 447.226 267.000 445.057 267.000 C 442.115 267.000 440.718 267.565 439.557 269.223 "/></g>
<g fill="#994344FF">
<path d="M 281.379 482.437 C 270.399 487.215 270.375 503.154 281.340 508.357 C 285.741 510.445 288.290 510.428 292.849 508.279 C 305.012 502.545 304.547 486.307 292.101 482.139 C 287.747 480.680 285.255 480.750 281.379 482.437 M 293.195 488.687 C 295.388 490.788 296.000 492.282 296.000 495.532 C 296.000 505.382 282.088 507.857 279.017 498.553 C 275.975 489.335 286.342 482.121 293.195 488.687 M 295.810 486.119 C 298.701 488.945 299.000 489.804 299.000 495.285 C 299.000 502.874 298.315 502.432 297.785 494.500 C 297.564 491.200 297.092 488.725 296.735 489.000 C 296.378 489.275 295.446 488.625 294.664 487.555 C 293.579 486.071 291.613 485.482 286.371 485.070 L 279.500 484.531 285.500 483.933 C 288.800 483.605 291.752 483.261 292.060 483.168 C 292.368 483.076 294.056 484.403 295.810 486.119 M 279.000 488.378 C 279.000 489.135 278.325 490.315 277.500 491.000 C 276.675 491.685 275.970 493.877 275.932 495.872 C 275.870 499.221 275.781 499.326 274.776 497.241 C 273.917 495.459 274.089 494.143 275.593 491.003 C 277.518 486.985 279.000 485.843 279.000 488.378 "/></g>
<g fill="#994344FF">
<path d="M 235.000 481.917 C 232.550 482.573 232.494 482.806 232.209 493.543 C 231.789 509.367 231.605 509.000 239.985 509.000 C 248.696 509.000 253.315 506.963 255.620 502.106 C 259.158 494.651 256.956 486.723 250.369 483.197 C 247.822 481.834 238.280 481.040 235.000 481.917 M 249.956 489.126 C 254.792 494.932 250.875 504.000 243.530 504.000 C 237.316 504.000 237.000 503.564 237.000 494.976 C 237.000 486.217 237.274 485.869 243.739 486.402 C 246.696 486.646 248.577 487.470 249.956 489.126 M 249.500 484.928 C 248.950 485.061 246.112 485.098 243.193 485.010 C 235.683 484.783 235.000 485.663 235.000 495.563 C 235.000 500.139 235.450 504.160 236.000 504.500 C 237.995 505.733 237.005 507.073 234.922 505.958 C 232.998 504.928 232.865 504.097 233.118 494.673 C 233.434 482.878 233.156 483.154 243.789 484.093 C 247.480 484.419 250.050 484.794 249.500 484.928 M 255.370 497.797 C 255.034 499.610 254.589 500.922 254.379 500.712 C 253.551 499.885 252.942 490.902 253.638 489.777 C 254.774 487.938 256.077 493.970 255.370 497.797 "/></g>
<g fill="#994344FF">
<path d="M 403.000 481.668 C 400.354 482.783 400.031 484.291 400.015 495.628 C 400.003 504.645 400.305 507.008 401.608 508.090 C 402.976 509.225 403.431 509.132 404.653 507.462 C 405.443 506.383 405.845 504.523 405.545 503.329 C 405.246 502.136 405.294 500.398 405.651 499.468 C 406.176 498.098 407.292 498.843 411.522 503.388 C 414.395 506.475 417.477 509.000 418.372 509.000 C 420.999 509.000 420.251 505.637 416.851 502.159 C 413.818 499.057 413.772 498.885 415.601 497.501 C 416.646 496.710 417.826 496.049 418.224 496.032 C 418.623 496.014 419.626 494.690 420.454 493.090 C 422.233 489.649 420.978 484.594 417.941 482.968 C 415.642 481.738 405.028 480.815 403.000 481.668 M 413.446 486.618 C 414.331 486.957 415.501 488.067 416.045 489.083 C 416.860 490.606 416.504 491.205 414.025 492.487 C 408.716 495.232 403.671 492.352 406.039 487.928 C 407.066 486.009 410.348 485.429 413.446 486.618 M 418.306 486.353 C 419.371 487.581 419.893 489.278 419.573 490.471 C 419.273 491.587 419.021 492.838 419.014 493.250 C 419.006 493.663 418.321 494.000 417.492 494.000 C 416.308 494.000 416.217 493.623 417.068 492.250 C 417.835 491.013 417.845 489.694 417.101 487.750 C 416.132 485.214 415.624 485.000 410.592 485.000 C 405.876 485.000 405.042 485.294 404.448 487.163 C 403.927 488.807 403.594 488.987 403.062 487.913 C 402.470 486.718 402.387 484.863 402.875 483.703 C 402.944 483.539 406.036 483.599 409.747 483.835 C 415.002 484.169 416.896 484.727 418.306 486.353 M 408.085 495.473 C 409.138 495.139 410.841 495.132 411.868 495.458 C 413.392 495.942 413.610 496.646 413.047 499.276 C 412.412 502.246 412.299 502.325 411.618 500.270 C 411.211 499.044 410.568 498.103 410.189 498.179 C 409.810 498.255 408.707 497.971 407.737 497.547 C 406.701 497.094 405.362 497.285 404.487 498.011 C 403.215 499.067 403.000 498.690 403.000 495.400 C 403.000 491.605 403.021 491.585 404.585 493.818 C 405.670 495.367 406.774 495.889 408.085 495.473 "/></g>
<g fill="#994344FF">
<path d="M 447.371 481.820 C 444.929 483.446 437.000 502.032 437.000 506.129 C 437.000 509.921 438.989 509.737 441.515 505.711 C 443.310 502.850 444.101 502.467 448.776 502.197 C 453.094 501.948 454.136 502.214 454.663 503.697 C 455.601 506.335 458.110 509.000 459.655 509.000 C 461.222 509.000 461.458 504.797 460.035 502.236 C 459.504 501.281 458.130 498.250 456.980 495.500 C 455.831 492.750 454.506 489.600 454.036 488.500 C 453.566 487.400 452.941 485.742 452.647 484.815 C 451.988 482.737 448.752 480.900 447.371 481.820 M 449.800 491.200 C 450.460 491.860 451.000 493.435 451.000 494.700 C 451.000 496.487 450.442 497.000 448.500 497.000 C 445.927 497.000 445.588 496.139 446.630 492.250 C 447.311 489.710 448.062 489.462 449.800 491.200 M 450.429 484.571 C 453.293 487.436 452.032 489.427 448.400 487.773 C 446.053 486.703 445.334 485.000 446.667 483.667 C 447.709 482.625 448.727 482.869 450.429 484.571 "/></g>
<g fill="#994344FF">
<path d="M 483.850 481.693 C 480.143 482.783 478.867 483.760 477.563 486.509 C 476.109 489.573 476.089 490.272 477.388 492.784 C 478.997 495.895 482.720 498.000 486.613 498.000 C 489.813 498.000 493.000 499.684 493.000 501.375 C 493.000 503.320 488.911 504.711 485.500 503.926 C 477.688 502.130 474.714 503.621 478.776 507.297 C 483.548 511.616 495.039 509.659 497.124 504.173 C 499.460 498.029 495.695 493.697 486.682 492.159 C 483.764 491.660 482.410 490.893 482.160 489.594 C 481.617 486.773 483.931 485.890 490.112 486.558 C 494.751 487.059 495.832 486.881 496.351 485.527 C 496.817 484.313 496.013 483.488 493.240 482.337 C 491.183 481.483 489.275 480.682 489.000 480.556 C 488.725 480.430 486.407 480.942 483.850 481.693 M 494.171 496.655 C 495.177 497.565 496.000 499.333 496.000 500.584 C 496.000 502.983 493.626 506.000 491.737 506.000 C 491.122 506.000 491.432 505.405 492.427 504.677 C 493.825 503.655 494.078 502.631 493.539 500.177 C 492.945 497.475 492.396 497.000 489.862 497.000 C 488.130 497.000 487.141 496.581 487.500 496.000 C 488.455 494.455 492.140 494.817 494.171 496.655 M 482.739 492.740 C 484.861 494.369 484.079 494.986 481.250 493.916 C 479.638 493.306 479.000 492.252 479.000 490.199 C 479.000 486.316 480.423 485.103 480.812 488.654 C 480.984 490.219 481.851 492.058 482.739 492.740 "/></g>
<g fill="#994344FF">
<path d="M 325.020 482.752 C 314.712 487.931 314.419 501.770 324.486 507.992 C 326.348 509.142 328.013 511.042 328.186 512.214 C 328.639 515.284 330.787 515.561 332.083 512.717 C 332.694 511.376 334.740 509.541 336.628 508.640 C 340.275 506.901 341.571 504.931 340.650 502.530 C 340.166 501.269 339.491 501.326 335.920 502.925 C 332.770 504.335 330.991 504.572 328.627 503.899 C 324.395 502.692 323.000 500.482 323.000 494.983 C 323.000 488.474 326.158 485.490 332.189 486.298 C 334.536 486.613 336.617 487.350 336.812 487.935 C 337.257 489.272 340.676 489.334 341.487 488.021 C 342.641 486.153 340.099 483.346 336.193 482.176 C 330.924 480.597 329.123 480.690 325.020 482.752 M 322.068 489.904 C 320.851 491.614 319.994 494.390 319.985 496.654 C 319.973 499.506 319.719 500.112 319.000 499.000 C 317.563 496.777 317.797 493.346 319.500 491.643 C 320.325 490.818 321.000 489.436 321.000 488.571 C 321.000 487.707 321.706 487.000 322.568 487.000 C 323.877 487.000 323.795 487.479 322.068 489.904 M 334.000 507.542 C 334.000 508.701 330.186 512.104 329.760 511.325 C 327.864 507.859 328.117 507.000 331.031 507.000 C 332.664 507.000 334.000 507.244 334.000 507.542 M 337.769 484.564 C 336.867 485.467 324.000 485.689 324.000 484.803 C 324.000 484.361 327.225 484.000 331.167 484.000 C 335.108 484.000 338.079 484.254 337.769 484.564 "/></g>
<g fill="#994344FF">
<path d="M 360.250 482.662 C 358.585 483.334 358.559 499.667 360.217 503.180 C 361.829 506.596 366.934 510.000 370.444 510.000 C 373.809 510.000 379.592 506.631 381.116 503.783 C 382.452 501.286 382.342 483.942 380.981 482.581 C 378.970 480.570 377.645 484.028 377.477 491.727 C 377.278 500.806 376.597 502.823 373.307 504.073 C 370.049 505.312 365.236 502.789 364.384 499.396 C 364.030 497.983 363.969 493.977 364.249 490.492 C 364.836 483.176 363.835 481.216 360.250 482.662 M 380.396 501.729 C 379.766 501.100 379.545 485.141 380.150 484.000 C 380.296 483.725 380.565 487.756 380.748 492.957 C 380.931 498.158 380.772 502.106 380.396 501.729 M 365.981 504.718 C 367.321 505.793 367.298 505.940 365.785 505.968 C 363.875 506.004 361.964 503.098 362.068 500.316 C 362.120 498.911 362.399 499.066 363.299 501.000 C 363.938 502.375 365.145 504.048 365.981 504.718 "/></g>
<g fill="#F8ACB0FF">
<path d="M 235.234 484.000 C 233.620 484.438 233.356 485.767 233.118 494.673 C 232.865 504.097 232.998 504.928 234.922 505.958 C 237.005 507.073 237.995 505.733 236.000 504.500 C 235.450 504.160 235.000 500.139 235.000 495.563 C 235.000 485.663 235.683 484.783 243.193 485.010 C 251.100 485.249 251.414 484.766 243.789 484.093 C 240.098 483.767 236.249 483.725 235.234 484.000 "/></g>
<g fill="#F8ACB0FF">
<path d="M 452.938 494.500 C 452.525 498.271 452.295 498.517 448.914 498.801 C 446.595 498.995 444.874 498.554 444.042 497.551 C 442.187 495.316 441.000 495.641 441.000 498.385 C 441.000 500.701 441.182 500.755 447.356 500.260 C 453.185 499.792 453.847 499.944 455.356 502.097 L 457.000 504.445 457.000 501.272 C 457.000 499.527 456.364 497.740 455.587 497.300 C 454.809 496.860 453.994 495.150 453.775 493.500 C 453.411 490.763 453.337 490.850 452.938 494.500 "/></g>
<g fill="#F8ACB0FF">
<path d="M 402.875 483.703 C 402.387 484.863 402.470 486.718 403.062 487.913 C 403.594 488.987 403.927 488.807 404.448 487.163 C 405.042 485.294 405.876 485.000 410.592 485.000 C 415.624 485.000 416.132 485.214 417.101 487.750 C 417.845 489.694 417.835 491.013 417.068 492.250 C 416.217 493.623 416.308 494.000 417.492 494.000 C 418.321 494.000 419.006 493.663 419.014 493.250 C 419.021 492.838 419.273 491.587 419.573 490.471 C 420.609 486.613 417.199 484.309 409.747 483.835 C 406.036 483.599 402.944 483.539 402.875 483.703 "/></g>
<g fill="#F8ACB0FF">
<path d="M 285.500 483.933 L 279.500 484.531 286.371 485.070 C 291.613 485.482 293.579 486.071 294.664 487.555 C 295.446 488.625 296.378 489.275 296.735 489.000 C 297.092 488.725 297.564 491.200 297.785 494.500 C 298.315 502.432 299.000 502.874 299.000 495.285 C 299.000 489.804 298.701 488.945 295.810 486.119 C 294.056 484.403 292.368 483.076 292.060 483.168 C 291.752 483.261 288.800 483.605 285.500 483.933 "/></g>
<g fill="#F8ACB0FF">
<path d="M 403.000 495.400 C 403.000 498.690 403.215 499.067 404.487 498.011 C 405.362 497.285 406.701 497.094 407.737 497.547 C 408.707 497.971 409.810 498.255 410.189 498.179 C 410.568 498.103 411.211 499.044 411.618 500.270 C 412.299 502.325 412.412 502.246 413.047 499.276 C 413.610 496.646 413.392 495.942 411.868 495.458 C 410.841 495.132 409.138 495.139 408.085 495.473 C 406.774 495.889 405.670 495.367 404.585 493.818 C 403.021 491.585 403.000 491.605 403.000 495.400 "/></g>
<g fill="#F8ACB0FF">
<path d="M 487.500 496.000 C 487.141 496.581 488.130 497.000 489.862 497.000 C 492.396 497.000 492.945 497.475 493.539 500.177 C 494.078 502.631 493.825 503.655 492.427 504.677 C 491.432 505.405 491.122 506.000 491.737 506.000 C 493.626 506.000 496.000 502.983 496.000 500.584 C 496.000 496.534 489.377 492.962 487.500 496.000 "/></g>
<g fill="#F8ACB0FF">
<path d="M 446.667 483.667 C 445.334 485.000 446.053 486.703 448.400 487.773 C 452.032 489.427 453.293 487.436 450.429 484.571 C 448.727 482.869 447.709 482.625 446.667 483.667 "/></g>
<g fill="#F8ACB0FF">
<path d="M 253.638 489.777 C 252.942 490.902 253.551 499.885 254.379 500.712 C 254.589 500.922 255.034 499.610 255.370 497.797 C 256.077 493.970 254.774 487.938 253.638 489.777 "/></g>
<g fill="#F8ACB0FF">
<path d="M 321.000 488.571 C 321.000 489.436 320.325 490.818 319.500 491.643 C 317.797 493.346 317.563 496.777 319.000 499.000 C 319.719 500.112 319.973 499.506 319.985 496.654 C 319.994 494.390 320.851 491.614 322.068 489.904 C 323.795 487.479 323.877 487.000 322.568 487.000 C 321.706 487.000 321.000 487.707 321.000 488.571 "/></g>
<g fill="#F8ACB0FF">
<path d="M 275.593 491.003 C 274.089 494.143 273.917 495.459 274.776 497.241 C 275.781 499.326 275.870 499.221 275.932 495.872 C 275.970 493.877 276.675 491.685 277.500 491.000 C 278.325 490.315 279.000 489.135 279.000 488.378 C 279.000 485.843 277.518 486.985 275.593 491.003 "/></g>
<g fill="#F8ACB0FF">
<path d="M 380.150 484.000 C 379.545 485.141 379.766 501.100 380.396 501.729 C 380.772 502.106 380.931 498.158 380.748 492.957 C 380.565 487.756 380.296 483.725 380.150 484.000 "/></g>
<g fill="#F8ACB0FF">
<path d="M 479.750 486.571 C 479.338 486.990 479.000 488.623 479.000 490.199 C 479.000 492.252 479.638 493.306 481.250 493.916 C 484.079 494.986 484.861 494.369 482.739 492.740 C 481.851 492.058 480.984 490.219 480.812 488.654 C 480.640 487.089 480.163 486.151 479.750 486.571 "/></g>
<g fill="#F8ACB0FF">
<path d="M 328.686 508.750 C 329.845 512.009 330.208 512.154 332.106 510.117 C 334.646 507.390 334.512 507.000 331.031 507.000 C 328.634 507.000 328.183 507.336 328.686 508.750 "/></g>
<g fill="#F8ACB0FF">
<path d="M 324.000 484.803 C 324.000 485.689 336.867 485.467 337.769 484.564 C 338.079 484.254 335.108 484.000 331.167 484.000 C 327.225 484.000 324.000 484.361 324.000 484.803 "/></g>
<g fill="#F8ACB0FF">
<path d="M 173.000 461.000 C 173.000 461.550 174.548 462.000 176.441 462.000 C 178.334 462.000 180.160 461.550 180.500 461.000 C 180.873 460.396 179.510 460.000 177.059 460.000 C 174.827 460.000 173.000 460.450 173.000 461.000 "/></g>
<g fill="#F8ACB0FF">
<path d="M 362.068 500.316 C 361.964 503.098 363.875 506.004 365.785 505.968 C 367.298 505.940 367.321 505.793 365.981 504.718 C 365.145 504.048 363.938 502.375 363.299 501.000 C 362.399 499.066 362.120 498.911 362.068 500.316 "/></g>
</svg>
